
<svg width="41px" height="41px" viewBox="0 0 41 41" version="1.1" xmlns="http://www.w3.org/2000/svg" xmlns:xlink="http://www.w3.org/1999/xlink">
    <!-- Generator: Sketch 43.1 (39012) - http://www.bohemiancoding.com/sketch -->
    <desc>Created with Sketch.</desc>
    <defs></defs>
    <g id="HomePage" stroke="none" stroke-width="0.2" fill="none" fill-rule="evenodd">
        <g id="Home" transform="translate(-224.000000, -895.000000)" fill-rule="nonzero" fill="#4B74FF">
            <g id="Group-6" transform="translate(224.000000, 895.000000)">
                <path d="M4.27700945,39.8608204 L19.311525,24.8507687 C20.2904013,23.8734853 20.2909186,22.2884789 19.3126804,21.310558 C18.3344423,20.332637 16.7478876,20.3321202 15.7690113,21.3094037 L0.734495748,36.3194553 C-0.244380518,37.2967388 -0.244897817,38.8817451 0.733340329,39.8596661 C1.71157847,40.837587 3.29813318,40.8381038 4.27700945,39.8608204 Z" id="Stroke-422"></path>
                <path d="M28.4051222,28.5031098 L28.4051222,26.0014345 C28.4051222,24.6188961 27.2832586,23.4981273 25.8993696,23.4981273 C24.5154807,23.4981273 23.393617,24.6188961 23.393617,26.0014345 L23.393617,28.5031098 C23.393617,29.8856481 24.5154807,31.0064169 25.8993696,31.0064169 C27.2832586,31.0064169 28.4051222,29.8856481 28.4051222,28.5031098 Z" id="Stroke-423"></path>
                <path d="M28.4051222,5.13232326 L28.4051222,2.63064798 C28.4051222,1.24810962 27.2832586,0.127340824 25.8993696,0.127340824 C24.5154807,0.127340824 23.393617,1.24810962 23.393617,2.63064798 L23.393617,5.13232326 C23.393617,6.51486163 24.5154807,7.63563042 25.8993696,7.63563042 C27.2832586,7.63563042 28.4051222,6.51486163 28.4051222,5.13232326 Z" id="Stroke-424"></path>
                <path d="M13.2278271,17.7931312 L15.7335797,17.7931312 C17.1174686,17.7931312 18.2393323,16.6723624 18.2393323,15.289824 C18.2393323,13.9072856 17.1174686,12.7865169 15.7335797,12.7865169 L13.2278271,12.7865169 C11.8439381,12.7865169 10.7220745,13.9072856 10.7220745,15.289824 C10.7220745,16.6723624 11.8439381,17.7931312 13.2278271,17.7931312 Z" id="Stroke-425"></path>
                <path d="M35.64671,17.7931312 L38.1524626,17.7931312 C39.5363516,17.7931312 40.6582152,16.6723624 40.6582152,15.289824 C40.6582152,13.9072856 39.5363516,12.7865169 38.1524626,12.7865169 L35.64671,12.7865169 C34.2628211,12.7865169 33.1409574,13.9072856 33.1409574,15.289824 C33.1409574,16.6723624 34.2628211,17.7931312 35.64671,17.7931312 Z" id="Stroke-426"></path>
                <path d="M34.4937648,9.8243541 L36.9995174,7.32267882 C37.9783936,6.34539536 37.9789109,4.76038902 37.0006728,3.78246807 C36.0224346,2.80454712 34.4358799,2.80403032 33.4570037,3.78131378 L30.9512511,6.28298906 C29.9723748,7.26027251 29.9718575,8.84527885 30.9500956,9.82319981 C31.9283338,10.8011208 33.5148885,10.8016376 34.4937648,9.8243541 Z" id="Stroke-427"></path>
                <path d="M13.4060383,7.32267882 L15.9117909,9.8243541 C16.8906672,10.8016376 18.4772219,10.8011208 19.45546,9.82319981 C20.4336982,8.84527885 20.4331809,7.26027251 19.4543046,6.28298906 L16.948552,3.78131378 C15.9696757,2.80403032 14.383121,2.80454712 13.4048829,3.78246807 C12.4266447,4.76038902 12.427162,6.34539536 13.4060383,7.32267882 Z" id="Stroke-428"></path>
                <path d="M30.9512511,24.8507687 L33.4570037,27.352444 C34.4358799,28.3297274 36.0224346,28.3292106 37.0006728,27.3512897 C37.9789109,26.3733687 37.9783936,24.7883624 36.9995174,23.8110789 L34.4937648,21.3094037 C33.5148885,20.3321202 31.9283338,20.332637 30.9500956,21.310558 C29.9718575,22.2884789 29.9723748,23.8734853 30.9512511,24.8507687 Z" id="Stroke-429"></path>
            </g>
        </g>
    </g>
</svg>
