
<svg width="41px" height="38px" viewBox="0 0 41 38" version="1.1" xmlns="http://www.w3.org/2000/svg" xmlns:xlink="http://www.w3.org/1999/xlink">
    <!-- Generator: Sketch 43.1 (39012) - http://www.bohemiancoding.com/sketch -->
    <desc>Created with Sketch.</desc>
    <defs></defs>
    <g id="HomePage" stroke="none" stroke-width="0.2" fill="none" fill-rule="evenodd">
        <g id="Home" transform="translate(-564.000000, -899.000000)" fill-rule="nonzero" fill="#4B74FF">
            <g id="Group-5" transform="translate(564.000000, 899.000000)">
                <path d="M20.3362592,3.25677183 C22.3363759,1.25990969 24.8152851,0.0224719101 27.7454594,0.0224719101 C35.6972899,0.0224719101 40.2742224,6.96077789 40.2742224,14.0134719 C40.2742224,20.8279342 36.8926093,26.7451805 31.3798318,31.498923 C27.4735708,34.8673448 22.3779636,37.5508648 20.2282016,37.5508648 C18.0795432,37.5508648 12.9837341,34.8670571 9.07758209,31.4989843 C3.56418825,26.7450701 0.182180851,20.8279117 0.182180851,14.0134719 C0.182180851,6.96077789 4.75911333,0.0224719101 12.7109438,0.0224719101 C15.6411181,0.0224719101 18.1200273,1.25990969 20.120144,3.25677183 C20.1565466,3.29311517 20.1925654,3.32945592 20.2282016,3.36578463 C20.2638379,3.32945592 20.2998566,3.29311517 20.3362592,3.25677183 Z M35.2627172,14.0134719 C35.2627172,9.39434983 32.3831214,5.02908623 27.7454594,5.02908623 C26.2905667,5.02908623 25.010847,5.66790491 23.8787729,6.79813687 C23.1555334,7.52019956 22.6716242,8.24488218 22.4691224,8.64922673 C21.5454795,10.4935068 18.9109238,10.4935068 17.9872808,8.64922673 C17.784779,8.24488218 17.3008699,7.52019956 16.5776303,6.79813687 C15.4455563,5.66790491 14.1658366,5.02908623 12.7109438,5.02908623 C8.07328184,5.02908623 5.19368604,9.39434983 5.19368604,14.0134719 C5.19368604,19.181451 7.84780126,23.8250896 12.3520153,27.7088403 C15.4295052,30.3624006 19.572235,32.5442505 20.2282016,32.5442505 C20.8853295,32.5442505 25.027649,30.3627642 28.1052566,27.7089015 C32.6089099,23.8253403 35.2627172,19.1816302 35.2627172,14.0134719 Z" id="Stroke-41"></path>
            </g>
        </g>
    </g>
</svg>
