
<svg width="41px" height="41px" viewBox="0 0 41 41" version="1.1" xmlns="http://www.w3.org/2000/svg" xmlns:xlink="http://www.w3.org/1999/xlink">
    <!-- Generator: Sketch 43.1 (39012) - http://www.bohemiancoding.com/sketch -->
    <desc>Created with Sketch.</desc>
    <defs></defs>
    <g id="HomePage" stroke="none" stroke-width="0.2" fill="none" fill-rule="evenodd">
        <g id="Home" transform="translate(-573.000000, -679.000000)" fill-rule="nonzero" fill="#4B74FF">
            <g id="Group-2" transform="translate(573.000000, 679.000000)">
                <path d="M23.2105693,35.8283603 L23.2105693,25.8216592 C23.2105693,24.4391209 22.0887056,23.3183521 20.7048167,23.3183521 C19.3209277,23.3183521 18.1990641,24.4391209 18.1990641,25.8216592 L18.1990641,35.8283603 C18.1990641,37.2108987 19.3209277,38.3316675 20.7048167,38.3316675 C22.0887056,38.3316675 23.2105693,37.2108987 23.2105693,35.8283603 Z" id="Stroke-253"></path>
                <path d="M13.8816784,40.9841424 L28.916194,40.9841424 C30.3000829,40.9841424 31.4219466,39.8633736 31.4219466,38.4808352 C31.4219466,37.0982969 30.3000829,35.9775281 28.916194,35.9775281 L13.8816784,35.9775281 C12.4977894,35.9775281 11.3759258,37.0982969 11.3759258,38.4808352 C11.3759258,39.8633736 12.4977894,40.9841424 13.8816784,40.9841424 Z" id="Stroke-254"></path>
                <path d="M13.4632289,15.9330319 C13.4632289,20.0763286 16.8288024,23.4364258 20.9804866,23.4364258 C25.1321708,23.4364258 28.4977444,20.0763286 28.4977444,15.9330319 L28.4977444,5.92796263 L13.4632289,5.92796263 L13.4632289,15.9330319 Z M20.9804866,28.4430401 C14.0617559,28.4430401 8.45172366,22.8421365 8.45172366,15.9330319 L8.45172366,5.92633075 C8.45172366,3.16047667 10.6960514,0.921348315 13.4632289,0.921348315 L28.4977444,0.921348315 C31.2649219,0.921348315 33.5092496,3.16047667 33.5092496,5.92633075 L33.5092496,15.9330319 C33.5092496,22.8421365 27.8992174,28.4430401 20.9804866,28.4430401 Z" id="Stroke-255"></path>
                <path d="M10.6768617,12.875615 L8.17110911,12.875615 C6.78828153,12.875615 5.66535651,11.7545172 5.66535651,10.3755716 C5.66535651,8.996626 6.78828153,7.87552818 8.17110911,7.87552818 L10.6768617,7.87552818 L10.6768617,2.86891386 L8.17110911,2.86891386 C4.02123495,2.86891386 0.653851318,6.23081814 0.653851318,10.3755716 C0.653851318,14.520325 4.02123495,17.8822293 8.17110911,17.8822293 L10.6768617,17.8822293 L10.6768617,12.875615 Z" id="Stroke-256"></path>
                <path d="M30.8706066,7.87552818 L33.3763592,7.87552818 C34.7591868,7.87552818 35.8821118,8.996626 35.8821118,10.3755716 C35.8821118,11.7545172 34.7591868,12.875615 33.3763592,12.875615 L30.8706066,12.875615 L30.8706066,17.8822293 L33.3763592,17.8822293 C37.5262334,17.8822293 40.893617,14.520325 40.893617,10.3755716 C40.893617,6.23081814 37.5262334,2.86891386 33.3763592,2.86891386 L30.8706066,2.86891386 L30.8706066,7.87552818 Z" id="Stroke-257"></path>
            </g>
        </g>
    </g>
</svg>
