
<svg width="41px" height="26px" viewBox="0 0 41 26" version="1.1" xmlns="http://www.w3.org/2000/svg" xmlns:xlink="http://www.w3.org/1999/xlink">
    <!-- Generator: Sketch 43.1 (39012) - http://www.bohemiancoding.com/sketch -->
    <desc>Created with Sketch.</desc>
    <defs></defs>
    <g id="HomePage" stroke="none" stroke-width="0.2" fill="none" fill-rule="evenodd">
        <g id="Home" transform="translate(-916.000000, -902.000000)" fill-rule="nonzero" fill="#4B74FF">
            <g id="Group-4" transform="translate(916.000000, 902.000000)">
                <path d="M7.85904255,11.2111723 L7.85904255,16.2145229 C7.85904255,17.5970613 8.9809062,18.71783 10.3647951,18.71783 C11.7486841,18.71783 12.8705477,17.5970613 12.8705477,16.2145229 L12.8705477,11.2111723 C12.8705477,9.82863396 11.7486841,8.70786517 10.3647951,8.70786517 C8.9809062,8.70786517 7.85904255,9.82863396 7.85904255,11.2111723 Z" id="Stroke-78"></path>
                <path d="M15.6569149,11.2111723 L15.6569149,16.2145229 C15.6569149,17.5970613 16.7787785,18.71783 18.1626675,18.71783 C19.5465564,18.71783 20.6684201,17.5970613 20.6684201,16.2145229 L20.6684201,11.2111723 C20.6684201,9.82863396 19.5465564,8.70786517 18.1626675,8.70786517 C16.7787785,8.70786517 15.6569149,9.82863396 15.6569149,11.2111723 Z" id="Stroke-79"></path>
                <path d="M22.4800532,11.2111723 L22.4800532,16.2145229 C22.4800532,17.5970613 23.6019168,18.71783 24.9858058,18.71783 C26.3696947,18.71783 27.4915584,17.5970613 27.4915584,16.2145229 L27.4915584,11.2111723 C27.4915584,9.82863396 26.3696947,8.70786517 24.9858058,8.70786517 C23.6019168,8.70786517 22.4800532,9.82863396 22.4800532,11.2111723 Z" id="Stroke-80"></path>
                <path d="M30.1302014,18.4309618 C30.1302014,17.0484235 31.252065,15.9276547 32.635954,15.9276547 L35.1417066,15.9276547 C35.1426118,15.9276547 35.1417066,10.9275679 35.1417066,10.9275679 L32.635954,10.9275679 C31.252065,10.9275679 30.1302014,9.80679908 30.1302014,8.42426071 L30.1302014,5.92421732 L5.0726754,5.92421732 L5.0726754,20.9326371 L30.1302014,20.9310052 L30.1302014,18.4309618 Z M30.1302014,25.9376195 L5.0726754,25.9376195 C2.30597668,25.9376195 0.0611702128,23.6964658 0.0611702128,20.9326371 L0.0611702128,5.92258543 C0.0611702128,3.15875675 2.30597668,0.917602996 5.0726754,0.917602996 L30.1302014,0.917602996 C32.8983832,0.917602996 35.1408239,3.15739783 35.1417063,5.92095361 C37.9104332,5.92095355 40.1532117,8.16163014 40.1532117,10.925936 L40.1532117,15.9292865 C40.1532117,18.6935924 37.9104332,20.934269 35.1417066,20.934269 C35.1408238,23.6978247 32.8983831,25.9376195 30.1302014,25.9376195 Z" id="Stroke-81"></path>
            </g>
        </g>
    </g>
</svg>
