
<svg width="41px" height="41px" viewBox="0 0 41 41" version="1.1" xmlns="http://www.w3.org/2000/svg" xmlns:xlink="http://www.w3.org/1999/xlink">
    <!-- Generator: Sketch 43.1 (39012) - http://www.bohemiancoding.com/sketch -->
    <desc>Created with Sketch.</desc>
    <defs></defs>
    <g id="HomePage" stroke="none" stroke-width="0.2" fill="none" fill-rule="evenodd">
        <g id="Home" transform="translate(-224.000000, -677.000000)" fill-rule="nonzero" fill="#4B74FF">
            <g id="Group" transform="translate(224.000000, 677.000000)">
                <path d="M35.0805363,20.0150341 C35.0805363,11.7264614 28.349737,5.00661432 20.0460208,5.00661432 C11.7423045,5.00661432 5.01150519,11.7264614 5.01150519,20.0150341 C5.01150519,28.3036068 11.7423045,35.0234539 20.0460208,35.0234539 C28.349737,35.0234539 35.0805363,28.3036068 35.0805363,20.0150341 Z M40.0920415,20.0150341 C40.0920415,31.0694147 31.1167836,40.0300682 20.0460208,40.0300682 C8.97525794,40.0300682 0,31.0694147 0,20.0150341 C0,8.96065355 8.97525794,0 20.0460208,0 C31.1167836,0 40.0920415,8.96065355 40.0920415,20.0150341 Z" id="Stroke-21"></path>
                <path d="M17.5452128,13.2149176 L17.5452128,20.7199435 C17.5452128,22.1024818 18.6670764,23.2232506 20.0509654,23.2232506 C21.4348543,23.2232506 22.556718,22.1024818 22.556718,20.7199435 L22.556718,13.2149176 C22.556718,11.8323793 21.4348543,10.7116105 20.0509654,10.7116105 C18.6670764,10.7116105 17.5452128,11.8323793 17.5452128,13.2149176 Z" id="Stroke-23"></path>
                <path d="M26.8337274,23.2640651 L21.8222222,18.2607145 C20.8433459,17.2834311 19.2567912,17.2839479 18.2785531,18.2618688 C17.3003149,19.2397898 17.3008322,20.8247961 18.2797085,21.8020796 L23.2912137,26.8054301 C24.27009,27.7827136 25.8566447,27.7821968 26.8348828,26.8042758 C27.813121,25.8263549 27.8126037,24.2413485 26.8337274,23.2640651 Z" id="Stroke-25"></path>
            </g>
        </g>
    </g>
</svg>
