
<svg width="41px" height="41px" viewBox="0 0 41 41" version="1.1" xmlns="http://www.w3.org/2000/svg" xmlns:xlink="http://www.w3.org/1999/xlink">
    <!-- Generator: Sketch 43.1 (39012) - http://www.bohemiancoding.com/sketch -->
    <desc>Created with Sketch.</desc>
    <defs></defs>
    <g id="HomePage" stroke="none" stroke-width="0.2" fill="none" fill-rule="evenodd">
        <g id="Home" transform="translate(-916.000000, -679.000000)" fill-rule="nonzero" fill="#4B74FF">
            <g id="Group-3" transform="translate(916.000000, 679.000000)">
                <path d="M5.0726754,33.4463907 C2.30549793,33.4463907 0.0611702128,31.2072623 0.0611702128,28.4414083 L0.0611702128,5.92633075 C0.0611702128,3.16047667 2.30549793,0.921348315 5.0726754,0.921348315 L35.1417066,0.921348315 C37.908884,0.921348315 40.1532117,3.16047667 40.1532117,5.92633075 L40.1532117,28.4414083 C40.1532117,31.2072623 37.908884,33.4463907 35.1417066,33.4463907 L26.4592492,33.4463907 L22.1916847,39.8373212 C21.1997637,41.3227816 19.0146182,41.3227816 18.0226973,39.8373212 L13.7551328,33.4463907 L5.0726754,33.4463907 Z M15.0956858,28.4397764 C15.9332249,28.4397764 16.7153866,28.8578168 17.1801795,29.5538717 L20.107191,33.9372447 L23.0342025,29.5538717 C23.4989953,28.8578168 24.281157,28.4397764 25.1186962,28.4397764 L35.1417066,28.4397764 L35.1417066,5.92796263 L5.0726754,5.92796263 L5.0726754,28.4397764 L15.0956858,28.4397764 Z" id="Stroke-215"></path>
                <path d="M12.3142632,16.6395731 L27.3487788,16.6395731 C28.7326678,16.6395731 29.8545314,15.5188043 29.8545314,14.136266 C29.8545314,12.7537276 28.7326678,11.6329588 27.3487788,11.6329588 L12.3142632,11.6329588 C10.9303743,11.6329588 9.80851064,12.7537276 9.80851064,14.136266 C9.80851064,15.5188043 10.9303743,16.6395731 12.3142632,16.6395731 Z" id="Stroke-216"></path>
                <path d="M15.2384654,23.4560525 L25.2614757,23.4560525 C26.6453647,23.4560525 27.7672283,22.3352837 27.7672283,20.9527454 C27.7672283,19.570207 26.6453647,18.4494382 25.2614757,18.4494382 L15.2384654,18.4494382 C13.8545764,18.4494382 12.7327128,19.570207 12.7327128,20.9527454 C12.7327128,22.3352837 13.8545764,23.4560525 15.2384654,23.4560525 Z" id="Stroke-217"></path>
            </g>
        </g>
    </g>
</svg>
